<svg xmlns="http://www.w3.org/2000/svg" viewBox="0 0 337.8 343.3"><g id="Capa_2" data-name="Capa 2"><g id="Capa_3" data-name="Capa 3"><path d="M54.8,170.3c0,70.1,59.2,126.8,132.2,126.8s132.3-56.7,132.3-126.8S260.1,43.6,187,43.6,54.8,100.3,54.8,170.3Z"/><path d="M262.6,92.9H224.9L169,187.1l36,60.7h37.7l-36-60.7Z" style="fill:#fff"/><path d="M153.4,121.9H117.9l20.6,34.8-27,42.7H147l27-42.7Z" style="fill:#fff"/><path d="M337.8,215.1A171.6,171.6,0,0,1,171.7,343.3C76.9,343.3,0,266.5,0,171.7S76.9,0,171.7,0A171.5,171.5,0,0,1,328.9,102.7a156,156,0,1,0,8.9,112.4Z" style="fill:#204193"/></g></g></svg>